<svg width="26" height="33" viewBox="0 0 26 33" fill="none" xmlns="http://www.w3.org/2000/svg">
<path d="M7.82204 8.28161C4.94578 11.1558 0 9.12284 0 5.05687C0 2.53317 2.03443 0.500185 4.55994 0.500185C8.66388 0.465134 10.6983 5.40739 7.82204 8.28161Z" fill="#FFD600"/>
<path d="M12.7879 27.5915L16.7958 23.7141C17.342 23.1857 18.2064 23.188 18.7498 23.7194L22.7098 27.5915L25.2881 29.9969C26.2249 30.8709 25.61 32.447 24.3323 32.447H11.2813C10.0192 32.447 9.39677 30.9035 10.3022 30.0192L12.7879 27.5915Z" fill="#0F31AF"/>
<path d="M0.0330907 19.3126L0.0330901 27.1086C0.0330928 28.3527 1.53013 28.9907 2.4342 28.1319L25.6725 6.05855C26.1511 5.60388 25.5953 4.8396 25.012 5.1505L0.783123 18.0658C0.321342 18.3119 0.0330911 18.7911 0.0330907 19.3126Z" fill="#0F31AF"/>
</svg>
