<svg width="24" height="24" viewBox="0 0 24 24" fill="none" xmlns="http://www.w3.org/2000/svg">
<path fill-rule="evenodd" clip-rule="evenodd" d="M8.42857 7C8.42857 5.02786 10.0279 3.42857 12 3.42857C13.9721 3.42857 15.5714 5.02786 15.5714 7C15.5714 8.97214 13.9721 10.5714 12 10.5714C10.0279 10.5714 8.42857 8.97214 8.42857 7ZM12 2C9.23857 2 7 4.23857 7 7C7 9.76143 9.23857 12 12 12C14.7614 12 17 9.76143 17 7C17 4.23857 14.7614 2 12 2Z" fill="#383C43"/>
<path fill-rule="evenodd" clip-rule="evenodd" d="M4.39242 15.13C4.58473 14.7513 5.01472 14.5 5.54163 14.5H18.4584C18.9853 14.5 19.4153 14.7513 19.6076 15.13C19.9768 15.856 20.3737 16.8363 20.4568 17.7798C20.4937 18.199 20.3145 18.5455 20.0222 18.7233C18.9245 19.3878 16.4315 20.5 12 20.5C7.56853 20.5 5.07549 19.3878 3.97781 18.7233C3.68551 18.5455 3.50628 18.199 3.5432 17.7798C3.62628 16.8363 4.0232 15.856 4.39242 15.13ZM5.54163 13C4.52626 13 3.50628 13.4957 3.01398 14.464C2.61091 15.256 2.11784 16.4335 2.01015 17.6515C1.93092 18.553 2.31553 19.4815 3.16629 19.9975C4.51319 20.8128 7.28853 22 12 22C16.7115 22 19.4868 20.8128 20.8337 19.9975C21.6845 19.4815 22.0691 18.553 21.9899 17.6515C21.8822 16.4335 21.3891 15.256 20.986 14.464C20.4937 13.4957 19.4737 13 18.4584 13H5.54163Z" fill="#383C43"/>
</svg>
